<svg xmlns="http://www.w3.org/2000/svg" viewBox="0 0 24 24">
  <g fill="none" fill-rule="evenodd">
    <path d="M0 0L24 0 24 24 0 24z"/>
    <path fill="#303030" d="M12,2 C17.53,2 22,6.47 22,12 C22,17.53 17.53,22 12,22 C6.47,22 2,17.53 2,12 C2,6.47 6.47,2 12,2 Z M12,4 C7.59,4 4,7.59 4,12 C4,16.41 7.59,20 12,20 C16.41,20 20,16.41 20,12 C20,7.59 16.41,4 12,4 Z M14.8284271,7.75735931 L16.2426407,9.17157288 L13.414,12 L16.2426407,14.8284271 L14.8284271,16.2426407 L12,13.414 L9.17157288,16.2426407 L7.75735931,14.8284271 L10.586,12 L7.75735931,9.17157288 L9.17157288,7.75735931 L12,10.586 L14.8284271,7.75735931 Z"/>
  </g>
</svg>
